<svg width="108" height="27" viewBox="0 0 108 27" fill="none" xmlns="http://www.w3.org/2000/svg">
<g clip-path="url(#clip0_2_323)">
<path d="M26.9736 7.93807C26.9103 6.50346 26.6783 5.51718 26.346 4.66255C26.0032 3.75538 25.4757 2.94319 24.7847 2.26802C24.1095 1.58234 23.292 1.04954 22.3953 0.712053C21.5357 0.379721 20.5546 0.147726 19.12 0.0844739C17.6747 0.0158646 17.2158 0 13.5501 0C9.88431 0 9.42547 0.0158646 7.9855 0.079117C6.55089 0.142369 5.5646 0.37457 4.71018 0.706696C3.8028 1.04954 2.99062 1.57698 2.31545 2.26802C1.62976 2.94319 1.09717 3.76074 0.759478 4.6574C0.427145 5.51718 0.195151 6.4981 0.131898 7.93272C0.0632889 9.37805 0.0474243 9.83688 0.0474243 13.5026C0.0474243 17.1684 0.0632889 17.6272 0.126541 19.0672C0.189794 20.5018 0.421994 21.4881 0.754327 22.3427C1.09717 23.2499 1.62976 24.0621 2.31545 24.7373C2.99062 25.4229 3.80816 25.9557 4.70482 26.2932C5.5646 26.6256 6.54553 26.8575 7.98035 26.9208C9.42011 26.9843 9.87916 26.9999 13.5449 26.9999C17.2107 26.9999 17.6695 26.9843 19.1095 26.9208C20.5441 26.8575 21.5304 26.6256 22.3848 26.2932C24.1993 25.5917 25.634 24.1571 26.3355 22.3427C26.6676 21.4829 26.8998 20.5018 26.9631 19.0672C27.0263 17.6272 27.0422 17.1684 27.0422 13.5026C27.0422 9.83688 27.0368 9.37805 26.9736 7.93807ZM24.5422 18.9617C24.4841 20.2803 24.2626 20.9924 24.078 21.4671C23.6243 22.6433 22.6908 23.5769 21.5145 24.0306C21.0398 24.2152 20.3226 24.4367 19.0091 24.4945C17.585 24.558 17.1579 24.5737 13.5554 24.5737C9.95292 24.5737 9.52045 24.558 8.1015 24.4945C6.78288 24.4367 6.07083 24.2152 5.59612 24.0306C5.01078 23.8142 4.47798 23.4714 4.04551 23.0231C3.59718 22.5852 3.25434 22.0578 3.03801 21.4724C2.8534 20.9977 2.63191 20.2803 2.57402 18.9671C2.51056 17.543 2.4949 17.1156 2.4949 13.5131C2.4949 9.91064 2.51056 9.47818 2.57402 8.05943C2.63191 6.74081 2.8534 6.02876 3.03801 5.55406C3.25434 4.96851 3.59718 4.43591 4.05087 4.00324C4.48849 3.55491 5.01593 3.21207 5.60148 2.99594C6.07618 2.81133 6.79359 2.58985 8.10685 2.53174C9.53096 2.46849 9.95827 2.45263 13.5606 2.45263C17.1684 2.45263 17.5955 2.46849 19.0145 2.53174C20.3331 2.58985 21.0452 2.81133 21.5199 2.99594C22.1052 3.21207 22.638 3.55491 23.0705 4.00324C23.5188 4.44106 23.8617 4.96851 24.078 5.55406C24.2626 6.02876 24.4841 6.74596 24.5422 8.05943C24.6054 9.48353 24.6213 9.91064 24.6213 13.5131C24.6213 17.1156 24.6054 17.5376 24.5422 18.9617Z" fill="black"/>
<path d="M13.5501 6.56665C9.72092 6.56665 6.61414 9.67323 6.61414 13.5026C6.61414 17.3319 9.72092 20.4385 13.5501 20.4385C17.3794 20.4385 20.486 17.3319 20.486 13.5026C20.486 9.67323 17.3794 6.56665 13.5501 6.56665ZM13.5501 18.0017C11.0659 18.0017 9.0509 15.9869 9.0509 13.5026C9.0509 11.0182 11.0659 9.00341 13.5501 9.00341C16.0344 9.00341 18.0492 11.0182 18.0492 13.5026C18.0492 15.9869 16.0344 18.0017 13.5501 18.0017Z" fill="black"/>
<path d="M22.3796 6.29256C22.3796 7.18675 21.6546 7.91178 20.7602 7.91178C19.866 7.91178 19.141 7.18675 19.141 6.29256C19.141 5.39817 19.866 4.67334 20.7602 4.67334C21.6546 4.67334 22.3796 5.39817 22.3796 6.29256Z" fill="black"/>
</g>
<path d="M37.9297 19H36.4297V7.625H37.9297V19ZM41.8203 10.5469L41.8672 11.6094C42.513 10.7969 43.3568 10.3906 44.3984 10.3906C46.1849 10.3906 47.0859 11.3984 47.1016 13.4141V19H45.6562V13.4062C45.651 12.7969 45.5104 12.3464 45.2344 12.0547C44.9635 11.763 44.5391 11.6172 43.9609 11.6172C43.4922 11.6172 43.0807 11.7422 42.7266 11.9922C42.3724 12.2422 42.0964 12.5703 41.8984 12.9766V19H40.4531V10.5469H41.8203ZM54.2031 16.7578C54.2031 16.3672 54.0547 16.0651 53.7578 15.8516C53.4661 15.6328 52.9531 15.4453 52.2188 15.2891C51.4896 15.1328 50.9089 14.9453 50.4766 14.7266C50.0495 14.5078 49.7318 14.2474 49.5234 13.9453C49.3203 13.6432 49.2188 13.2839 49.2188 12.8672C49.2188 12.1745 49.5104 11.5885 50.0938 11.1094C50.6823 10.6302 51.4323 10.3906 52.3438 10.3906C53.3021 10.3906 54.0781 10.638 54.6719 11.1328C55.2708 11.6276 55.5703 12.2604 55.5703 13.0312H54.1172C54.1172 12.6354 53.9479 12.2943 53.6094 12.0078C53.276 11.7214 52.8542 11.5781 52.3438 11.5781C51.8177 11.5781 51.4062 11.6927 51.1094 11.9219C50.8125 12.151 50.6641 12.4505 50.6641 12.8203C50.6641 13.1693 50.8021 13.4323 51.0781 13.6094C51.3542 13.7865 51.8516 13.9557 52.5703 14.1172C53.2943 14.2786 53.8802 14.4714 54.3281 14.6953C54.776 14.9193 55.1068 15.1901 55.3203 15.5078C55.5391 15.8203 55.6484 16.2031 55.6484 16.6562C55.6484 17.4115 55.3464 18.0182 54.7422 18.4766C54.138 18.9297 53.3542 19.1562 52.3906 19.1562C51.7135 19.1562 51.1146 19.0365 50.5938 18.7969C50.0729 18.5573 49.6641 18.224 49.3672 17.7969C49.0755 17.3646 48.9297 16.8984 48.9297 16.3984H50.375C50.401 16.8828 50.5938 17.2682 50.9531 17.5547C51.3177 17.8359 51.7969 17.9766 52.3906 17.9766C52.9375 17.9766 53.375 17.8672 53.7031 17.6484C54.0365 17.4245 54.2031 17.1276 54.2031 16.7578ZM59.4922 8.5V10.5469H61.0703V11.6641H59.4922V16.9062C59.4922 17.2448 59.5625 17.5 59.7031 17.6719C59.8438 17.8385 60.0833 17.9219 60.4219 17.9219C60.5885 17.9219 60.8177 17.8906 61.1094 17.8281V19C60.7292 19.1042 60.3594 19.1562 60 19.1562C59.3542 19.1562 58.8672 18.9609 58.5391 18.5703C58.2109 18.1797 58.0469 17.625 58.0469 16.9062V11.6641H56.5078V10.5469H58.0469V8.5H59.4922ZM67.9844 19C67.901 18.8333 67.8333 18.5365 67.7812 18.1094C67.1094 18.8073 66.3073 19.1562 65.375 19.1562C64.5417 19.1562 63.8568 18.9219 63.3203 18.4531C62.7891 17.9792 62.5234 17.3802 62.5234 16.6562C62.5234 15.776 62.8568 15.0938 63.5234 14.6094C64.1953 14.1198 65.138 13.875 66.3516 13.875H67.7578V13.2109C67.7578 12.7057 67.6068 12.3047 67.3047 12.0078C67.0026 11.7057 66.5573 11.5547 65.9688 11.5547C65.4531 11.5547 65.0208 11.6849 64.6719 11.9453C64.3229 12.2057 64.1484 12.5208 64.1484 12.8906H62.6953C62.6953 12.4688 62.8438 12.0625 63.1406 11.6719C63.4427 11.276 63.849 10.9635 64.3594 10.7344C64.875 10.5052 65.4401 10.3906 66.0547 10.3906C67.0286 10.3906 67.7917 10.6354 68.3438 11.125C68.8958 11.6094 69.1823 12.2786 69.2031 13.1328V17.0234C69.2031 17.7995 69.3021 18.4167 69.5 18.875V19H67.9844ZM65.5859 17.8984C66.0391 17.8984 66.4688 17.7812 66.875 17.5469C67.2812 17.3125 67.5755 17.0078 67.7578 16.6328V14.8984H66.625C64.8542 14.8984 63.9688 15.4167 63.9688 16.4531C63.9688 16.9062 64.1198 17.2604 64.4219 17.5156C64.724 17.7708 65.112 17.8984 65.5859 17.8984ZM71.125 14.7031C71.125 13.3854 71.4297 12.3385 72.0391 11.5625C72.6484 10.7812 73.4557 10.3906 74.4609 10.3906C75.4922 10.3906 76.2969 10.7552 76.875 11.4844L76.9453 10.5469H78.2656V18.7969C78.2656 19.8906 77.9401 20.7526 77.2891 21.3828C76.6432 22.013 75.7734 22.3281 74.6797 22.3281C74.0703 22.3281 73.474 22.1979 72.8906 21.9375C72.3073 21.6771 71.862 21.3203 71.5547 20.8672L72.3047 20C72.9245 20.7656 73.6823 21.1484 74.5781 21.1484C75.2812 21.1484 75.8281 20.9505 76.2188 20.5547C76.6146 20.1589 76.8125 19.6016 76.8125 18.8828V18.1562C76.2344 18.8229 75.4453 19.1562 74.4453 19.1562C73.4557 19.1562 72.6536 18.7578 72.0391 17.9609C71.4297 17.1641 71.125 16.0781 71.125 14.7031ZM72.5781 14.8672C72.5781 15.8203 72.7734 16.5703 73.1641 17.1172C73.5547 17.6589 74.1016 17.9297 74.8047 17.9297C75.7161 17.9297 76.3854 17.5156 76.8125 16.6875V12.8281C76.3698 12.0208 75.7057 11.6172 74.8203 11.6172C74.1172 11.6172 73.5677 11.8906 73.1719 12.4375C72.776 12.9844 72.5781 13.7943 72.5781 14.8672ZM84.5391 11.8438C84.3203 11.8073 84.0833 11.7891 83.8281 11.7891C82.8802 11.7891 82.237 12.1927 81.8984 13V19H80.4531V10.5469H81.8594L81.8828 11.5234C82.3568 10.7682 83.0286 10.3906 83.8984 10.3906C84.1797 10.3906 84.3932 10.4271 84.5391 10.5V11.8438ZM90.7812 19C90.6979 18.8333 90.6302 18.5365 90.5781 18.1094C89.9062 18.8073 89.1042 19.1562 88.1719 19.1562C87.3385 19.1562 86.6536 18.9219 86.1172 18.4531C85.5859 17.9792 85.3203 17.3802 85.3203 16.6562C85.3203 15.776 85.6536 15.0938 86.3203 14.6094C86.9922 14.1198 87.9349 13.875 89.1484 13.875H90.5547V13.2109C90.5547 12.7057 90.4036 12.3047 90.1016 12.0078C89.7995 11.7057 89.3542 11.5547 88.7656 11.5547C88.25 11.5547 87.8177 11.6849 87.4688 11.9453C87.1198 12.2057 86.9453 12.5208 86.9453 12.8906H85.4922C85.4922 12.4688 85.6406 12.0625 85.9375 11.6719C86.2396 11.276 86.6458 10.9635 87.1562 10.7344C87.6719 10.5052 88.237 10.3906 88.8516 10.3906C89.8255 10.3906 90.5885 10.6354 91.1406 11.125C91.6927 11.6094 91.9792 12.2786 92 13.1328V17.0234C92 17.7995 92.099 18.4167 92.2969 18.875V19H90.7812ZM88.3828 17.8984C88.8359 17.8984 89.2656 17.7812 89.6719 17.5469C90.0781 17.3125 90.3724 17.0078 90.5547 16.6328V14.8984H89.4219C87.651 14.8984 86.7656 15.4167 86.7656 16.4531C86.7656 16.9062 86.9167 17.2604 87.2188 17.5156C87.5208 17.7708 87.9089 17.8984 88.3828 17.8984ZM95.625 10.5469L95.6641 11.4844C96.2839 10.7552 97.1198 10.3906 98.1719 10.3906C99.3542 10.3906 100.159 10.8438 100.586 11.75C100.867 11.3438 101.232 11.0156 101.68 10.7656C102.133 10.5156 102.667 10.3906 103.281 10.3906C105.135 10.3906 106.078 11.3724 106.109 13.3359V19H104.664V13.4219C104.664 12.8177 104.526 12.3672 104.25 12.0703C103.974 11.7682 103.51 11.6172 102.859 11.6172C102.323 11.6172 101.878 11.7786 101.523 12.1016C101.169 12.4193 100.964 12.849 100.906 13.3906V19H99.4531V13.4609C99.4531 12.2318 98.8516 11.6172 97.6484 11.6172C96.7005 11.6172 96.0521 12.0208 95.7031 12.8281V19H94.2578V10.5469H95.625Z" fill="#2C2C2C"/>
<defs>
<clipPath id="clip0_2_323">
<rect width="27" height="27" fill="white"/>
</clipPath>
</defs>
</svg>
